<?xml version="1.0" encoding="utf-8"?>
<!-- Generator: Adobe Illustrator 24.1.1, SVG Export Plug-In . SVG Version: 6.00 Build 0)  -->
<svg version="1.1" id="Layer_1" xmlns="http://www.w3.org/2000/svg" xmlns:xlink="http://www.w3.org/1999/xlink" x="0px" y="0px"
	 viewBox="0 0 512 512" style="enable-background:new 0 0 512 512;" xml:space="preserve">
<g>
	<path d="M378.4,211.5h22.3c36.9,0.1,66.7,29.9,66.8,66.8c-0.1,36.9-29.9,66.7-66.8,66.8h-22.3c-12.3,0-22.3,10-22.3,22.3
		c0,12.3,10,22.3,22.3,22.3h22.3c61.5,0,111.3-49.8,111.3-111.3c0-61.5-49.8-111.3-111.3-111.3h-22.3c-12.3,0-22.3,10-22.3,22.3
		C356.2,201.5,366.1,211.5,378.4,211.5z"/>
	<path d="M22.3,189.2v22.3h333.9v178.1c-0.1,36.9-29.9,66.7-66.8,66.8H111.3c-36.9-0.1-66.7-29.9-66.8-66.8V189.2H22.3v22.3V189.2H0
		v200.3C0,451,49.8,500.9,111.3,500.9l178.1,0c61.5,0,111.3-49.8,111.3-111.3V189.2c0-5.9-2.4-11.6-6.5-15.7
		c-4.1-4.1-9.9-6.5-15.7-6.5H22.3c-5.9,0-11.6,2.4-15.7,6.5c-4.1,4.1-6.5,9.9-6.5,15.7H22.3z"/>
	<path d="M89,33.4v66.8c0,12.3,10,22.3,22.3,22.3s22.3-10,22.3-22.3V33.4c0-12.3-10-22.3-22.3-22.3S89,21.1,89,33.4"/>
	<path d="M178.1,33.4v66.8c0,12.3,10,22.3,22.3,22.3c12.3,0,22.3-10,22.3-22.3V33.4c0-12.3-10-22.3-22.3-22.3
		C188.1,11.1,178.1,21.1,178.1,33.4"/>
	<path d="M267.1,33.4v66.8c0,12.3,10,22.3,22.3,22.3s22.3-10,22.3-22.3V33.4c0-12.3-10-22.3-22.3-22.3S267.1,21.1,267.1,33.4"/>
</g>
</svg>
